# Blender v2.79 (sub 0) OBJ File: ''
# www.blender.org
mtllib toutou1.mtl
o Plane
v -0.780680 0.000000 0.989526
v 0.783699 0.000000 0.989526
v -0.766843 0.008220 -1.987722
v 0.797536 0.008220 -1.987722
v 2.999382 0.000000 1.009805
v 2.999382 0.000000 -1.498273
v -1.004439 0.000000 2.270484
v 0.999580 0.000000 2.270484
v -1.004439 0.000000 0.989526
v -0.990602 0.008220 -1.987722
vt 0.000000 0.000000
vt 1.000000 0.000000
vt 1.000000 0.996143
vt 0.000000 0.996143
vn 0.0000 1.0000 0.0028
usemtl None
s off
f 1/1/1 2/2/1 4/3/1 3/4/1
l 5 6
l 7 8
l 10 9
